<svg width="394" height="389" viewBox="0 0 394 389" fill="none" xmlns="http://www.w3.org/2000/svg">
<circle cx="195.29" cy="194.22" r="190.263" stroke="url(#paint0_linear_201_4795)" stroke-linecap="round" stroke-dasharray="30 30"/>
<circle cx="194" cy="194.219" r="153.823" transform="rotate(17.8645 194 194.219)" stroke="url(#paint1_linear_201_4795)" stroke-width="0.64496" stroke-dasharray="19.35 19.35"/>
<g filter="url(#filter0_f_201_4795)">
<circle cx="74.8015" cy="41.8024" r="11.2868" fill="#25B4F8"/>
</g>
<circle cx="75.124" cy="42.124" r="16.124" fill="#25B4F8"/>
<path d="M79.1794 33.8919C77.4952 33.0178 75.9643 33.4298 74.894 34.014C73.8276 34.596 72.6311 34.9166 71.4167 34.9458C70.1977 34.975 68.6658 35.3836 67.6443 36.9827C65.7087 40.0127 68.893 43.6454 69.707 44.2C70.521 44.7546 70.7985 45.7105 71.765 47.555C72.7315 49.3996 73.7912 51.1118 74.8375 50.5309C75.8839 49.9501 75.8194 48.5078 75.6115 46.6103C75.5972 46.4798 75.5858 46.3568 75.5769 46.2408C75.5164 45.4448 76.5929 45.1564 76.9385 45.8759C76.9888 45.9808 77.0405 46.093 77.0934 46.2132C77.8621 47.9605 78.5274 49.2417 79.724 49.2216C80.9206 49.2014 80.9822 47.1888 80.897 45.1081C80.8117 43.0275 80.5741 42.0609 81.0018 41.1736C81.4294 40.2863 82.3706 35.5481 79.1794 33.8919ZM71.5938 36.9001C71.6244 37.1387 71.4563 37.3571 71.2182 37.3887C71.1331 37.4006 69.2508 37.6886 69.272 39.8221C69.274 40.0255 69.1365 40.1978 68.9487 40.2482C68.9139 40.2575 68.8774 40.2627 68.8397 40.263C68.5986 40.2654 68.4012 40.0719 68.3988 39.8308C68.3756 37.493 70.1588 36.6451 71.1049 36.5229C71.3441 36.4921 71.5629 36.661 71.5938 36.9001Z" fill="white"/>
<g filter="url(#filter1_f_201_4795)">
<circle cx="37.8012" cy="189.802" r="11.2868" fill="#25B4F8"/>
</g>
<circle cx="38.124" cy="190.124" r="16.124" fill="#25B4F8"/>
<path d="M42.1794 181.894C40.4952 181.02 38.9643 181.432 37.894 182.016C36.8276 182.598 35.6311 182.919 34.4167 182.948C33.1977 182.977 31.6658 183.386 30.6443 184.985C28.7087 188.015 31.893 191.647 32.707 192.202C33.521 192.757 33.7985 193.712 34.765 195.557C35.7315 197.402 36.7912 199.114 37.8375 198.533C38.8839 197.952 38.8194 196.51 38.6115 194.612C38.5972 194.482 38.5858 194.359 38.5769 194.243C38.5164 193.447 39.5929 193.158 39.9385 193.878C39.9888 193.983 40.0405 194.095 40.0934 194.215C40.8621 195.962 41.5274 197.244 42.724 197.224C43.9206 197.203 43.9822 195.191 43.897 193.11C43.8117 191.029 43.5741 190.063 44.0018 189.176C44.4294 188.288 45.3706 183.55 42.1794 181.894ZM34.5938 184.902C34.6244 185.141 34.4563 185.359 34.2182 185.391C34.1331 185.403 32.2508 185.691 32.272 187.824C32.274 188.027 32.1365 188.2 31.9487 188.25C31.9139 188.259 31.8774 188.265 31.8397 188.265C31.5986 188.267 31.4012 188.074 31.3988 187.833C31.3756 185.495 33.1588 184.647 34.1049 184.525C34.3441 184.494 34.5629 184.663 34.5938 184.902Z" fill="white"/>
<g filter="url(#filter2_f_201_4795)">
<circle cx="348.801" cy="298.793" r="11.2868" fill="#25B4F8"/>
</g>
<circle cx="349.124" cy="299.114" r="16.124" fill="#25B4F8"/>
<path d="M355.79 294.181C354.867 292.737 353.484 292.368 352.383 292.341C351.286 292.315 350.206 292.025 349.243 291.5C348.276 290.972 346.893 290.6 345.372 291.389C342.49 292.885 343.34 297.164 343.726 297.966C344.113 298.767 343.898 299.64 343.821 301.519C343.744 303.398 343.8 305.216 344.88 305.234C345.961 305.252 346.562 304.095 347.256 302.517C347.304 302.409 347.35 302.307 347.396 302.213C347.708 301.563 348.68 301.823 348.626 302.542C348.618 302.647 348.607 302.758 348.595 302.876C348.407 304.59 348.348 305.892 349.293 306.417C350.238 306.941 351.196 305.395 352.068 303.729C352.941 302.063 353.192 301.2 353.927 300.699C354.662 300.198 357.538 296.917 355.79 294.181ZM348.499 293.108C348.415 293.309 348.185 293.404 347.984 293.321C347.912 293.292 346.31 292.667 345.363 294.345C345.273 294.505 345.088 294.578 344.918 294.532C344.886 294.524 344.856 294.512 344.826 294.495C344.636 294.388 344.569 294.147 344.676 293.958C345.714 292.119 347.491 292.261 348.286 292.592C348.487 292.676 348.582 292.907 348.499 293.108Z" fill="white"/>
<g filter="url(#filter3_f_201_4795)">
<circle cx="296.359" cy="30.2145" r="11.2868" fill="#25B4F8"/>
</g>
<circle cx="296.682" cy="30.5361" r="16.124" fill="#25B4F8"/>
<path d="M304.317 25.3955C303.296 23.7964 301.764 23.3877 300.545 23.3585C299.33 23.3293 298.134 23.0087 297.067 22.4268C295.997 21.8426 294.466 21.4305 292.782 22.3046C289.591 23.9608 290.532 28.699 290.96 29.5863C291.387 30.4736 291.15 31.4402 291.064 33.5209C290.979 35.6015 291.041 37.6142 292.237 37.6343C293.434 37.6545 294.099 36.3732 294.868 34.6259C294.921 34.5057 294.972 34.3935 295.023 34.2886C295.368 33.5691 296.445 33.8576 296.384 34.6535C296.376 34.7694 296.364 34.8925 296.35 35.023C296.142 36.9205 296.077 38.3628 297.124 38.9436C298.17 39.5245 299.23 37.8123 300.196 35.9678C301.163 34.1232 301.44 33.1673 302.254 32.6128C303.068 32.0582 306.253 28.4254 304.317 25.3955ZM296.244 24.2078C296.151 24.4298 295.896 24.5349 295.674 24.4432C295.594 24.4109 293.82 23.7192 292.772 25.5774C292.672 25.7546 292.467 25.8351 292.279 25.7848C292.244 25.7754 292.21 25.7617 292.177 25.7431C291.967 25.6247 291.893 25.3584 292.011 25.1484C293.16 23.1122 295.128 23.2695 296.009 23.6367C296.231 23.7296 296.336 23.9853 296.244 24.2078Z" fill="white"/>
<g filter="url(#filter4_f_201_4795)">
<circle cx="369.086" cy="152.807" r="8.062" transform="rotate(25.8761 369.086 152.807)" fill="#25B4F8"/>
</g>
<circle cx="369.235" cy="153.237" r="12.8992" transform="rotate(25.8761 369.235 153.237)" fill="#25B4F8"/>
<path d="M373.874 149.377C373.111 148.358 372.066 148.16 371.249 148.201C370.435 148.242 369.619 148.087 368.877 147.75C368.132 147.412 367.088 147.213 366.004 147.881C363.952 149.147 364.816 152.27 365.146 152.842C365.476 153.414 365.365 154.073 365.412 155.469C365.458 156.865 365.599 158.208 366.4 158.162C367.202 158.116 367.583 157.226 368.011 156.019C368.04 155.936 368.069 155.859 368.097 155.786C368.293 155.288 369.027 155.427 369.026 155.963C369.026 156.041 369.025 156.123 369.022 156.211C368.977 157.491 369.005 158.459 369.734 158.796C370.462 159.132 371.086 157.934 371.641 156.653C372.196 155.371 372.335 154.718 372.852 154.307C373.369 153.895 375.318 151.307 373.874 149.377ZM368.414 148.982C368.363 149.135 368.198 149.218 368.045 149.168C367.99 149.15 366.769 148.776 366.16 150.071C366.102 150.194 365.969 150.258 365.84 150.234C365.817 150.229 365.793 150.222 365.77 150.211C365.624 150.142 365.561 149.968 365.63 149.821C366.297 148.402 367.622 148.41 368.229 148.612C368.382 148.663 368.465 148.829 368.414 148.982Z" fill="white"/>
<defs>
<filter id="filter0_f_201_4795" x="47.3906" y="14.3916" width="54.8215" height="54.8212" filterUnits="userSpaceOnUse" color-interpolation-filters="sRGB">
<feFlood flood-opacity="0" result="BackgroundImageFix"/>
<feBlend mode="normal" in="SourceGraphic" in2="BackgroundImageFix" result="shape"/>
<feGaussianBlur stdDeviation="8.062" result="effect1_foregroundBlur_201_4795"/>
</filter>
<filter id="filter1_f_201_4795" x="10.3904" y="162.392" width="54.8215" height="54.8212" filterUnits="userSpaceOnUse" color-interpolation-filters="sRGB">
<feFlood flood-opacity="0" result="BackgroundImageFix"/>
<feBlend mode="normal" in="SourceGraphic" in2="BackgroundImageFix" result="shape"/>
<feGaussianBlur stdDeviation="8.062" result="effect1_foregroundBlur_201_4795"/>
</filter>
<filter id="filter2_f_201_4795" x="321.391" y="271.382" width="54.8215" height="54.8212" filterUnits="userSpaceOnUse" color-interpolation-filters="sRGB">
<feFlood flood-opacity="0" result="BackgroundImageFix"/>
<feBlend mode="normal" in="SourceGraphic" in2="BackgroundImageFix" result="shape"/>
<feGaussianBlur stdDeviation="8.062" result="effect1_foregroundBlur_201_4795"/>
</filter>
<filter id="filter3_f_201_4795" x="268.949" y="2.80373" width="54.8215" height="54.8212" filterUnits="userSpaceOnUse" color-interpolation-filters="sRGB">
<feFlood flood-opacity="0" result="BackgroundImageFix"/>
<feBlend mode="normal" in="SourceGraphic" in2="BackgroundImageFix" result="shape"/>
<feGaussianBlur stdDeviation="8.062" result="effect1_foregroundBlur_201_4795"/>
</filter>
<filter id="filter4_f_201_4795" x="344.898" y="128.619" width="48.3757" height="48.3759" filterUnits="userSpaceOnUse" color-interpolation-filters="sRGB">
<feFlood flood-opacity="0" result="BackgroundImageFix"/>
<feBlend mode="normal" in="SourceGraphic" in2="BackgroundImageFix" result="shape"/>
<feGaussianBlur stdDeviation="8.062" result="effect1_foregroundBlur_201_4795"/>
</filter>
<linearGradient id="paint0_linear_201_4795" x1="195.29" y1="-86.9823" x2="195.29" y2="470.263" gradientUnits="userSpaceOnUse">
<stop stop-color="#1376F8"/>
<stop offset="0.796875" stop-color="#1376F8" stop-opacity="0"/>
</linearGradient>
<linearGradient id="paint1_linear_201_4795" x1="194" y1="-33.603" x2="194" y2="417.86" gradientUnits="userSpaceOnUse">
<stop stop-color="#1376F8"/>
<stop offset="0.796875" stop-color="#1376F8" stop-opacity="0"/>
</linearGradient>
</defs>
</svg>
